<?xml version="1.0" encoding="UTF-8" standalone="no"?><!DOCTYPE svg PUBLIC "-//W3C//DTD SVG 1.1//EN" "http://www.w3.org/Graphics/SVG/1.1/DTD/svg11.dtd"><svg width="100%" height="100%" viewBox="0 0 240 240" version="1.1" xmlns="http://www.w3.org/2000/svg" xmlns:xlink="http://www.w3.org/1999/xlink" xml:space="preserve" xmlns:serif="http://www.serif.com/" style="fill-rule:evenodd;clip-rule:evenodd;stroke-linejoin:round;stroke-miterlimit:2;"><g id="treeboot"><path d="M116.832,145.021c0.12,0.054 0.18,0.204 0.3,0.258c0.037,0.017 3.974,0.01 4.32,0.009c0.077,-0 0.72,-0.001 0.96,-0.003c0.727,-0.005 0.698,-0.228 0.822,-0.289c0.153,0.201 0.144,0.209 0.165,0.216c0.216,0.075 19.606,0.027 26.614,0.041c4.823,0.01 4.828,-0.012 5.743,0.143c3.354,0.57 7.189,3.702 7.2,8.785c0.007,3.629 0.037,18.153 -0.006,45.36c-0.009,5.551 0.121,5.585 -0.447,7.443c-0.844,2.758 -3.908,6.037 -8.17,6.059c-0.084,0 -59.742,-0 -60.72,-0.001c-8.419,-0.011 -8.429,0.048 -9.576,-0.166c-3.691,-0.689 -7.12,-4.264 -7.111,-9.015c0.007,-11.6 0.014,-23.2 0.02,-34.8c0.001,-1.19 0.007,-14.527 -0.004,-14.879c-0.035,-1.102 0.51,-3.775 1.986,-5.557c2.27,-2.741 4.748,-3.129 6.045,-3.32c0.876,-0.129 30.838,-0.016 31.435,-0.052c0.29,-0.018 0.271,-0.073 0.424,-0.233Z" style="fill:#2e2e2d;"/><path d="M116.838,48.381c0.099,0.004 0.196,-0.038 0.294,-0.034c0.079,0.003 0.153,0.039 0.231,0.055c0.04,0.008 0.264,0.052 0.504,0.095c1.361,0.24 3.388,0.225 4.297,0.052c0.54,-0.103 0.533,-0.119 1.083,-0.144c-0.125,0.927 -0.054,0.925 -0.049,1.858c0.008,1.747 -0.006,1.746 0.014,21.841c0.003,3.53 -0.051,3.529 -0.051,3.836c0,0.419 0.255,0.415 0.51,0.084c0.061,-0.078 0.581,-0.751 0.705,-1.018c0.735,-1.579 0.206,-3.433 1.813,-7.964c0.198,-0.558 1.232,-3.471 3.764,-6.372c3.252,-3.723 7.794,-5.359 7.817,-5.369c1.869,-0.783 4.999,-1.516 5.767,-1.63c1.327,-0.198 2.135,-0.401 2.316,-0.011c0.102,0.221 0.092,1.713 0.036,2.117c-0.165,1.185 -0.123,2.105 -0.235,2.639c-0.213,1.014 -0.371,2.119 -0.493,2.636c-0.402,1.708 -0.866,2.869 -0.963,3.111c-1.229,3.074 -2.161,4.177 -2.581,4.826c-0.441,0.682 -2.373,3.071 -5.024,4.829c-3.705,2.458 -6.59,2.851 -8.907,3.552c-1.75,0.529 -4.109,2.269 -4.467,5.063c-0.048,0.377 -0.014,16.843 -0.026,21.831c-0.003,1.267 -0.029,12.749 0.003,15.839c0.018,1.763 -0.102,1.774 -0.032,1.91c0.164,0.319 0.278,0.152 0.511,-0.118c0.214,-0.249 1.198,-1.063 1.305,-1.152c0.021,-0.017 0.019,-0.017 0.26,-0.218c1.602,-1.335 5.508,-4.199 5.732,-4.366c4.282,-3.197 4.29,-3.183 4.66,-3.463c1.709,-1.293 2.701,-1.871 2.928,-2.4c0.447,-1.042 -0.179,-2.153 -0.964,-4.376c-0.408,-1.156 -1.038,-4.39 -0.701,-5.953c0.131,-0.606 0.031,-0.618 0.17,-1.219c0.278,-1.203 0.59,-2.012 0.656,-2.182c1.399,-3.626 4.218,-5.941 4.578,-6.258c0.735,-0.647 1.03,-0.843 1.52,0.008c1.739,3.021 2.255,5.999 2.266,6.049c0.132,0.576 0.056,0.585 0.174,1.162c0.218,1.066 0.1,3.189 0.065,3.36c-0.224,1.1 -0.199,1.103 -0.225,1.197c-0.243,0.878 -0.215,0.884 -0.239,0.96c-0.358,1.128 -0.269,1.168 -0.877,2.186c-0.137,0.229 -0.236,0.307 0.008,0.421c0.159,0.074 0.413,-0.186 0.44,-0.214c0.388,-0.397 0.408,-0.368 1.725,-1.374c0.161,-0.123 4.296,-3.155 4.716,-3.473c0.107,-0.081 1.287,-0.975 1.339,-1.012c1.365,-0.969 1.751,-1.314 1.924,-1.441c1.786,-1.302 1.766,-1.323 1.922,-1.435c0.112,-0.08 0.653,-0.468 1.387,-1.028c1.378,-1.051 1.406,-1.008 2.782,-2.055c5.725,-4.356 7.912,-5.926 8.744,-6.576c1.199,-0.937 1.413,-1.046 1.922,-1.442c1.396,-1.085 1.862,-1.269 2.259,-1.78c0.04,0.043 0.223,0.111 0.431,0.472c0.403,0.699 0.452,1.282 1.72,2.785c0.039,0.046 0.072,0.097 0.109,0.144c0.212,0.27 0.266,0.212 0.485,0.474c0.071,0.085 0.064,0.088 0.729,0.684c-0.138,0.024 -0.134,-0.036 -0.272,-0.012c-0.017,0.003 -0.061,0.01 -0.199,0.093c-0.055,0.033 -2.33,1.74 -2.457,1.842c-1.053,0.842 -14.211,10.664 -15.608,11.747c-2.07,1.605 -5.842,4.363 -6.717,5.045c-0.757,0.59 -0.783,0.546 -0.843,0.604c-0.057,0.055 -0.077,0.307 -0.036,0.36c0.036,0.045 0.04,0.051 0.699,0.178c1.545,0.298 1.887,0.037 4.747,-1.63c2.306,-1.345 5.562,-2.473 7.721,-2.736c2.841,-0.346 3.481,-0.224 5.27,-0.103c3.62,0.245 7.295,1.753 8.457,2.298c0.264,0.124 2.492,1.169 3.252,1.64c1.661,1.028 1.973,1.163 1.56,1.651c-2.027,2.399 -6.796,6.721 -13.269,7.641c-3.46,0.491 -4.994,0.179 -7.211,-0.201c-0.099,-0.017 -0.641,-0.171 -0.729,-0.191c-1.798,-0.404 -3.539,-1.183 -4.1,-1.462c-4.715,-2.349 -5.176,-3.925 -8.113,-4.443c-0.193,-0.034 -1.682,-0.297 -2.446,0.226c-0.365,0.25 -1.654,1.133 -4.453,3.273c-6.604,5.047 -6.641,4.992 -9.212,7.076c-0.744,0.603 -2.561,2.017 -4.572,4.075c-2.35,2.405 -4.244,5.03 -5.206,8.205c-0.555,1.832 -0.589,2.927 -0.647,3.366c-0.05,0.374 -0.063,7.349 -0.011,8.076c-0.124,0.061 -0.095,0.284 -0.822,0.289c-0.239,0.002 -0.883,0.003 -0.96,0.003c-0.346,0.001 -4.283,0.008 -4.32,-0.009c-0.12,-0.054 -0.18,-0.204 -0.3,-0.258c0.089,-1.059 0.031,-1.061 0.037,-6.919c0.001,-1.087 -0.07,-1.079 -0.157,-2.165c-0.068,-0.857 -0.779,-4.585 -3.512,-8.081c-2.9,-3.708 -6.466,-6.343 -11.966,-10.553c-1.125,-0.861 -1.121,-0.865 -1.221,-0.937c-2.675,-1.954 -2.635,-2.001 -2.869,-2.167c-1.595,-1.136 -3.518,-2.728 -4.434,-3.311c-0.863,-0.55 -2.368,-0.159 -2.926,-0.071c-1.881,0.297 -4.776,2.978 -7.467,4.218c-3.159,1.454 -4.175,1.532 -5.759,1.892c-0.503,0.114 -1.195,0.138 -1.68,0.21c-2.655,0.393 -6.184,-0.227 -8.349,-0.989c-2.577,-0.907 -4.506,-2.255 -4.583,-2.306c-0.389,-0.252 -2.368,-1.533 -4.437,-3.723c-0.695,-0.736 -1.16,-1.072 -0.592,-1.501c0.292,-0.22 0.923,-0.59 1.005,-0.639c11.07,-6.488 19.397,-4.305 23.726,-2.105c4.092,2.079 4.032,2.756 6.467,2.305c0.372,-0.069 0.567,0.052 0.531,-0.324c-0.02,-0.209 -0.095,-0.16 -0.27,-0.278c-0.664,-0.443 -1.541,-1.124 -1.672,-1.226c-0.182,-0.141 -1.738,-1.351 -2.292,-1.74c-1.954,-1.372 -1.913,-1.426 -2.086,-1.541c-0.095,-0.064 -1.817,-1.362 -1.924,-1.434c-0.16,-0.108 -1.897,-1.423 -1.921,-1.439c-0.343,-0.228 -3.923,-2.939 -4.263,-3.197c-0.174,-0.132 -1.657,-1.254 -2.191,-1.639c-0.67,-0.482 -8.14,-6.141 -9.06,-6.807c-0.144,-0.104 -0.154,-0.074 -0.313,-0.15c0.09,-0.16 0.179,-0.493 0.672,-0.988c1.759,-1.767 1.627,-2.255 2.133,-3.116c0.216,-0.368 0.35,-0.415 0.401,-0.475c0.155,0.196 0.147,0.198 0.342,0.347c2.25,1.723 2.302,1.643 4.556,3.367c0.996,0.762 6.779,5.084 6.984,5.244c0.718,0.559 1.131,0.844 1.499,1.121c1.271,0.959 1.286,0.936 1.395,1.021c2.651,2.057 13.251,9.785 14.159,10.615c0.025,0.023 0.023,0.071 0.053,0.087c0.029,0.015 0.349,0.179 0.372,-0.155c0.006,-0.084 -0.352,-0.275 -1.075,-2.664c-0.135,-0.448 -0.428,-2.132 -0.44,-2.626c-0.044,-1.74 0.071,-2.437 0.106,-2.646c0.117,-0.708 0.045,-0.715 0.151,-1.168c0.207,-0.882 0.201,-0.882 0.222,-0.958c0.796,-2.855 1.501,-3.976 2.053,-5.075c0.368,-0.733 0.602,-0.778 1.24,-0.267c2.416,1.932 3.477,3.809 3.986,4.635c0.707,1.146 1.411,3.171 1.539,4.035c0.229,1.549 0.246,1.546 0.252,1.682c0.063,1.542 -0.018,1.991 -0.049,2.161c-0.241,1.322 -0.216,1.326 -0.239,1.44c-0.669,3.362 -1.699,4.409 -1.572,5.515c0.154,1.347 0.515,1.205 2.319,2.617c2.181,1.707 11.58,8.431 12.636,9.712c0.027,0.033 0.288,0.35 0.453,0.293c0.167,-0.058 0.07,-0.722 0.066,-0.857c-0.027,-0.844 0.005,-0.839 0.009,-10.56c0.008,-23.559 0.064,-27.83 -0.01,-28.317c-0.686,-4.49 -5.241,-5.291 -5.476,-5.349c-4.984,-1.232 -7.66,-2.808 -10.259,-5.069c-1.608,-1.399 -3.441,-3.931 -4.309,-5.711c-1.947,-3.996 -2.327,-7.702 -2.356,-7.855c-0.1,-0.527 -0.07,-0.527 -0.165,-1.937c-0.026,-0.391 -0.113,-0.617 -0.13,-0.966c-0.092,-1.908 0.062,-1.993 0.208,-2.074c0.08,-0.044 0.221,-0.122 1.136,0.023c3.456,0.548 8.071,1.717 12.087,4.838c0.711,0.552 4.741,3.685 6.485,9.192c0.426,1.345 0.461,1.552 0.484,1.691c0.102,0.607 0.172,0.588 0.26,1.201c0.088,0.608 0.177,0.591 0.216,1.207c0.046,0.728 0.1,0.717 0.19,1.442c0.208,1.675 0.276,1.76 1.144,2.913c0.027,0.036 0.307,0.408 0.523,0.222c0.052,-0.045 0.013,-0.673 0.009,-0.732c-0.016,-0.252 -0,-7.286 0.001,-7.92c0.003,-1.498 0.039,-17.331 0.011,-18.72c-0.006,-0.322 -0.077,-0.375 -0.091,-0.441Z" style="fill:#5c9d2c;"/><path d="M116.838,48.381c-0.28,-0.239 -0.294,-0.21 -0.643,-0.341c-0.199,-0.075 -1.333,-0.499 -2.362,-1.225c-1.234,-0.87 -2.164,-2.025 -2.325,-2.226c-0.28,-0.348 -1.792,-2.227 -2.203,-5.138c-0.812,-5.753 2.771,-9.037 3.03,-9.346c0.309,-0.369 2.606,-2.532 6.012,-3.027c4.455,-0.647 7.835,1.335 9.676,3.429c1.156,1.315 1.383,1.818 1.913,2.918c1.094,2.27 0.975,5.047 0.893,5.56c-0.137,0.857 -0.113,0.859 -0.13,0.932c-1.108,4.68 -3.91,6.47 -4.397,6.816c-0.847,0.602 -1.631,0.995 -1.968,1.133c-0.714,0.292 -0.775,0.197 -1.087,0.537c-0.549,0.025 -0.542,0.041 -1.083,0.144c-0.909,0.173 -2.936,0.188 -4.297,-0.052c-0.24,-0.042 -0.464,-0.087 -0.504,-0.095c-0.078,-0.015 -0.152,-0.052 -0.231,-0.055c-0.099,-0.004 -0.196,0.038 -0.294,0.034Z" style="fill:#c06324;"/><path d="M110.701,175.256c0.402,0.414 1.987,1.705 1.196,3.903c-0.255,0.71 -0.324,0.688 -4.391,4.758c-2.351,2.353 -12.34,12.287 -12.771,12.655c-0.509,0.436 -2.04,1.205 -3.508,-0.165c-0.406,-0.379 -1.113,-1.094 -1.209,-1.19c-0.581,-0.587 -0.946,-0.923 -1.081,-1.899c-0.159,-1.143 0.714,-2.032 0.845,-2.165c0.699,-0.712 3.665,-3.622 3.985,-3.935c0.01,-0.01 7.529,-7.474 8.304,-8.254c0.789,-0.795 1.09,-0.92 0.589,-1.428c-0.649,-0.657 -0.658,-0.646 -8.165,-8.153c-5.134,-5.134 -5.307,-5.082 -5.495,-6.069c-0.284,-1.495 0.466,-2.118 2.132,-3.697c0.003,-0.003 0.55,-0.698 1.522,-0.864c1.32,-0.226 2.179,0.65 2.316,0.79c0.943,0.962 13.23,13.14 15.732,15.714Z" style="fill:#fdfbf8;"/><path d="M65.861,83.825c-0.051,0.06 -0.184,0.108 -0.401,0.475c-0.506,0.861 -0.374,1.349 -2.133,3.116c-0.493,0.495 -0.583,0.828 -0.672,0.988c-0.076,0.022 -0.16,0.011 -0.236,0.033c-0.15,0.044 -0.37,0.264 -0.726,0.466c-1.637,0.927 -2.338,1.359 -4.807,1.637c-2.921,0.329 -5.723,-0.903 -7.125,-1.968c-0.394,-0.3 -1.377,-1.211 -1.389,-1.224c-2.602,-2.962 -2.834,-5.521 -2.885,-7.564c-0.01,-0.416 0.166,-1.994 0.453,-2.85c0.427,-1.275 0.459,-1.26 1.098,-2.44c0.684,-1.263 2.567,-3.179 4.081,-3.859c0.813,-0.365 2.486,-1.166 4.573,-1.162c2.045,0.004 2.462,0.223 2.633,0.263c0.324,0.076 2.186,0.512 3.784,1.731c3.507,2.675 4.005,6.243 4.085,6.647c0.561,2.838 -0.374,5.215 -0.37,5.511c0.001,0.068 0.035,0.133 0.036,0.2Z" style="fill:#c06223;"/><path d="M174.155,83.819c0.001,-0.066 0.037,-0.128 0.038,-0.193c0.006,-0.288 -0.693,-1.952 -0.519,-4.332c0.113,-1.558 0.52,-2.643 0.602,-2.863c0.16,-0.428 1.423,-4.36 5.776,-6.153c1.695,-0.698 2.708,-0.733 3.563,-0.791c2.93,-0.197 5.581,1.122 6.909,2.197c2.007,1.626 2.985,3.654 3.303,4.54c1.448,4.048 0.2,6.936 -0.058,7.662c-1.365,3.839 -4.556,5.369 -5.145,5.672c-1.86,0.956 -4.35,1.149 -5.485,0.991c-2.877,-0.399 -3.897,-1.072 -5.509,-2.171c-0.665,-0.597 -0.658,-0.599 -0.729,-0.684c-0.218,-0.262 -0.273,-0.204 -0.485,-0.474c-0.037,-0.047 -0.07,-0.098 -0.109,-0.144c-1.267,-1.503 -1.317,-2.087 -1.72,-2.785c-0.208,-0.361 -0.392,-0.429 -0.431,-0.472Z" style="fill:#c06123;"/><path d="M129.771,192.343c-0.006,5.296 0.07,5.35 -0.222,5.714c-0.47,0.587 -0.589,0.512 -4.017,0.519c-7.509,0.017 -7.508,0.039 -8.159,-0.006c-1.428,-0.098 -1.213,-1.538 -1.212,-2.387c0.004,-4.518 -0.11,-4.961 0.343,-5.441c0.442,-0.468 0.535,-0.366 3.989,-0.373c0.653,-0.001 8.053,-0.016 8.164,-0.008c1.355,0.098 1.116,1.696 1.115,1.981Z" style="fill:#fcfbf8;"/><path d="M125.143,39.002c-0.308,1.033 -0.653,2.074 -2.197,3.18c-1.857,1.329 -5.244,1.391 -7.195,-1.319c-2.668,-3.707 0.513,-9.283 5.69,-8.07c1.511,0.354 2.55,1.617 2.716,1.819c0.645,0.785 1.354,2.394 1.081,3.878c-0.04,0.215 -0.036,0.215 -0.04,0.234c-0.026,0.139 -0.029,0.133 -0.056,0.277Z" style="fill:#fdfbf7;"/><path d="M61.014,80.022c-0.146,4.608 -5.385,6.745 -8.547,3.709c-2.295,-2.203 -2.199,-6.05 0.848,-7.994c1.51,-0.963 3.978,-1.155 5.812,0.353c1.6,1.315 1.842,2.996 1.886,3.931Z" style="fill:#fdfbf7;"/><path d="M179.221,78.81c0.1,-0.362 0.084,-0.365 0.319,-0.944c0.414,-1.023 1.948,-2.755 4.313,-2.887c1.468,-0.082 2.71,0.596 3.151,0.921c3.33,2.459 2.332,6.878 -0.254,8.467c-1.858,1.141 -3.427,0.69 -3.609,0.656c-2.1,-0.39 -3.529,-2.133 -3.884,-3.552c-0.372,-1.487 -0.189,-1.911 -0.034,-2.662Z" style="fill:#fdfbf7;"/></g></svg>